<svg xmlns="http://www.w3.org/2000/svg" width="219" height="45" viewBox="0 0 219 45" fill="none">
  <mask id="mask0_506_3704" style="mask-type:luminance" maskUnits="userSpaceOnUse" x="0" y="0" width="219" height="45">
    <path d="M219 0H0V44.3058H219V0Z" fill="white"/>
  </mask>
  <g mask="url(#mask0_506_3704)">
    <path d="M22.1521 29.5129C18.0866 29.5129 14.79 26.2184 14.79 22.1545C14.79 18.088 18.0866 14.791 22.1521 14.791C26.2173 14.791 29.5143 18.088 29.5143 22.1545C29.5143 26.2184 26.2177 29.5129 22.1521 29.5129ZM41.8943 16.7281L27.5789 2.41271C27.5789 2.41271 22.1539 -3.0137 16.7288 2.41271L2.41067 16.7281C2.41067 16.7281 -3.01334 22.1545 2.41067 27.5782L16.7288 41.8953C16.7288 41.8953 22.1539 47.319 27.5789 41.8953L41.8943 27.5782C41.8943 27.5782 47.3194 22.1545 41.8943 16.7281Z" fill="#F7A600"/>
  </g>
  <mask id="mask1_506_3704" style="mask-type:luminance" maskUnits="userSpaceOnUse" x="0" y="0" width="219" height="45">
    <path d="M219 0H0V44.3058H219V0Z" fill="white"/>
  </mask>
  <g mask="url(#mask1_506_3704)">
    <path d="M68.2079 17.2998C67.3182 16.855 66.1561 16.8786 64.1026 16.8786H62.273V22.0487H65.9323C67.0208 22.0487 68.2582 22.1226 69.0739 21.1576C69.2964 20.9102 69.6177 20.4654 69.6177 19.6243C69.6177 19.1298 69.4688 17.9435 68.2079 17.2998ZM68.3567 11.0186C67.5156 9.98008 65.9823 10.079 64.8199 10.079H62.273V14.4316H63.4104C64.2765 14.4316 65.1412 14.4316 66.0323 14.3816C66.8484 14.3317 67.6395 14.2331 68.2332 13.5905C68.4306 13.392 68.7766 12.9722 68.7766 12.2296C68.7766 12.0322 68.7266 11.4888 68.3567 11.0186ZM70.6562 24.0758C69.1229 24.9419 67.5656 24.867 65.8834 24.867H59.0342V7.4082H65.2904C66.1565 7.4082 67.0462 7.4082 67.9109 7.48212C68.456 7.53208 69.8894 7.68058 71.0278 8.89158C71.3988 9.28784 72.14 10.2275 72.14 11.6862C72.14 12.181 72.0164 13.9118 70.5577 14.8265C70.1368 15.0992 69.7419 15.1978 69.2468 15.2966C69.4692 15.3466 70.0129 15.4452 70.583 15.7665C71.4727 16.2363 72.9561 17.3987 72.9561 19.9206C72.9557 21.6778 72.2146 23.1865 70.6562 24.0758Z" fill="#F7A600"/>
  </g>
  <path d="M78.4756 24.867V7.4082H90.8905V10.3264H81.6901V14.4306H90.123V17.2499H81.6901V21.9238H91.5078V24.867H78.4756Z" fill="#F7A600"/>
  <mask id="mask2_506_3704" style="mask-type:luminance" maskUnits="userSpaceOnUse" x="0" y="0" width="219" height="45">
    <path d="M219 0H0V44.3058H219V0Z" fill="white"/>
  </mask>
  <g mask="url(#mask2_506_3704)">
    <path d="M104.99 10.7462C104.422 10.3753 103.754 10.2265 102.369 10.2265H99.7233V15.6676H100.885C102.789 15.6676 103.976 15.6676 104.767 15.2467C105.262 14.9753 106.078 14.3317 106.078 12.9222C106.078 12.4774 106.029 11.4388 104.99 10.7462ZM106.103 24.867L102.665 18.3883H99.7229V24.867H96.4824V7.4082H103.629C104.422 7.4082 106.77 7.48212 108.329 9.53422C109.342 10.8701 109.392 12.3785 109.392 12.9472C109.392 13.2196 109.367 14.0843 109.071 14.9004C108.798 15.6176 107.957 17.1263 105.954 17.7447L109.836 24.8666H106.103V24.867Z" fill="#F7A600"/>
  </g>
  <path d="M125.568 24.867L117.928 12.6259L118.125 24.867H114.936V7.4082H117.878L125.618 19.7232L125.222 7.4082H128.438V24.867H125.568Z" fill="#F7A600"/>
  <mask id="mask3_506_3704" style="mask-type:luminance" maskUnits="userSpaceOnUse" x="0" y="0" width="219" height="45">
    <path d="M219 0H0V44.3058H219V0Z" fill="white"/>
  </mask>
  <g mask="url(#mask3_506_3704)">
    <path d="M146.817 23.5074C144.716 25.2878 141.897 25.3117 141.105 25.3117C140.067 25.3117 136.728 25.2628 134.305 22.7159C134.009 22.3939 133.686 21.9737 133.464 21.5774L136.21 19.6742C136.975 20.8113 138.409 22.2947 141.624 22.2947C141.773 22.2947 142.392 22.2946 142.909 22.1711C143.28 22.0972 144.987 21.6274 144.987 19.9952C144.987 19.8227 144.964 19.3518 144.666 18.9566C144.072 18.1658 142.49 17.9434 141.624 17.7446L139.547 17.2748C138.656 17.0773 137.691 16.8785 136.901 16.4586C136.085 16.0388 134.402 14.9253 134.402 12.4034C134.402 12.0071 134.453 10.8697 135.07 9.83116C135.862 8.49526 137.768 6.96191 141.303 6.96191C142.861 6.96191 145.928 7.20932 148.351 10.4988L145.656 12.5019C145.111 11.6372 143.876 9.90644 141.129 9.90644C140.958 9.90644 138.756 9.88009 138.038 11.241C137.89 11.5134 137.84 11.7608 137.84 12.0321C137.84 12.3295 137.916 12.5769 138.063 12.8232C138.483 13.5405 139.448 13.7629 141.056 14.1092L142.861 14.5054C144.517 14.8764 146.347 15.3712 147.51 16.731C148.005 17.2748 148.522 18.0659 148.522 19.6742C148.523 21.2565 148.029 22.4688 146.817 23.5074Z" fill="#F7A600"/>
  </g>
  <path d="M160.423 10.3514V24.868H157.159V10.3514H152.411V7.4082H165.245V10.3514H160.423Z" fill="#F7A600"/>
  <path d="M170.146 24.867V7.4082H182.56V10.3264H173.361V14.4306H181.794V17.2499H173.361V21.9238H183.177V24.867H170.146Z" fill="#F7A600"/>
  <path d="M191.344 7.4082H188.129V24.867H191.344V7.4082Z" fill="#F7A600"/>
  <path d="M208.509 24.867L200.868 12.6259L201.064 24.867H197.875V7.4082H200.818L208.557 19.7232L208.163 7.4082H211.377V24.867H208.509Z" fill="#F7A600"/>
  <mask id="mask4_506_3704" style="mask-type:luminance" maskUnits="userSpaceOnUse" x="0" y="0" width="219" height="45">
    <path d="M219 0H0V44.3058H219V0Z" fill="white"/>
  </mask>
  <g mask="url(#mask4_506_3704)">
    <path d="M216.73 4.1797H216.338V4.9195H216.71C217.025 4.9195 217.161 4.8035 217.161 4.54583C217.161 4.29569 217.025 4.1797 216.73 4.1797ZM217.123 6.50759L216.716 5.42046H216.344L216.337 6.50759H215.739V3.63973H216.685C216.916 3.63973 217.18 3.64588 217.378 3.76838C217.617 3.91586 217.765 4.21186 217.765 4.5455C217.765 4.91301 217.623 5.13782 217.276 5.31781L217.778 6.50759H217.123ZM216.704 3.04739C215.585 3.04739 214.678 3.9672 214.678 5.106C214.678 6.24446 215.578 7.15023 216.704 7.15023C217.817 7.15023 218.742 6.23795 218.742 5.13816C218.742 3.94838 217.869 3.04739 216.704 3.04739ZM216.704 7.38873C215.437 7.38873 214.421 6.37277 214.421 5.09915C214.421 3.82587 215.437 2.80957 216.71 2.80957C217.965 2.80957 218.999 3.81938 218.999 5.05433C219 6.3851 218.016 7.38873 216.704 7.38873Z" fill="#F7A600"/>
  </g>
  <path d="M61.7714 32.4834V37.4951H60.6453V32.4834H59.0059V31.4678H63.4372V32.4834H61.7714Z" fill="#F7A600"/>
  <mask id="mask5_506_3704" style="mask-type:luminance" maskUnits="userSpaceOnUse" x="0" y="0" width="219" height="45">
    <path d="M219 0H0V44.3058H219V0Z" fill="white"/>
  </mask>
  <g mask="url(#mask5_506_3704)">
    <path d="M70.6729 33.14C70.3567 32.6291 69.8794 32.3468 69.2734 32.3468C68.897 32.3468 68.6246 32.4666 68.5045 32.5265C68.0771 32.7568 67.5487 33.32 67.5487 34.4472C67.5487 34.6785 67.5563 35.7882 68.4021 36.3429C68.7696 36.5817 69.1368 36.5982 69.2894 36.5982C69.4095 36.5982 69.6819 36.5906 69.9817 36.4545C70.4255 36.2481 71.0065 35.7369 71.0315 34.6008C71.0401 34.1064 70.9467 33.5767 70.6729 33.14ZM71.3302 36.7871C71.1941 36.9321 70.843 37.2819 70.3054 37.4786C70.1179 37.5471 69.7682 37.6497 69.2556 37.6497C68.4021 37.6497 67.7537 37.3674 67.1898 36.7183C66.6262 36.0777 66.3877 35.3266 66.3877 34.49C66.3877 34.2939 66.3952 33.8326 66.5663 33.3204C66.9588 32.1169 67.9922 31.3145 69.2805 31.3145C70.443 31.3145 71.1342 31.9461 71.4151 32.2709C71.7313 32.6295 72.1751 33.3293 72.1662 34.4817C72.1659 34.8575 72.1251 35.9247 71.3302 36.7871Z" fill="#F7A600"/>
  </g>
  <mask id="mask6_506_3704" style="mask-type:luminance" maskUnits="userSpaceOnUse" x="0" y="0" width="219" height="45">
    <path d="M219 0H0V44.3058H219V0Z" fill="white"/>
  </mask>
  <g mask="url(#mask6_506_3704)">
    <path d="M79.6182 33.14C79.302 32.6291 78.8247 32.3468 78.2187 32.3468C77.8423 32.3468 77.5699 32.4666 77.4498 32.5265C77.0224 32.7568 76.4927 33.32 76.4927 34.4472C76.4927 34.6785 76.5012 35.7882 77.3475 36.3429C77.715 36.5817 78.0822 36.5982 78.2348 36.5982C78.3549 36.5982 78.6283 36.5906 78.927 36.4545C79.3708 36.2481 79.9519 35.7369 79.9768 34.6008C79.9857 34.1064 79.892 33.5767 79.6182 33.14ZM80.2756 36.7871C80.1394 36.9321 79.7883 37.2819 79.2507 37.4786C79.0632 37.5471 78.7135 37.6497 78.2009 37.6497C77.3475 37.6497 76.699 37.3674 76.1351 36.7183C75.5715 36.0777 75.333 35.3266 75.333 34.49C75.333 34.2939 75.3405 33.8326 75.5116 33.3204C75.9041 32.1169 76.9375 31.3145 78.2272 31.3145C79.3883 31.3145 80.0795 31.9461 80.3604 32.2709C80.6766 32.6295 81.1204 33.3293 81.1115 34.4817C81.1115 34.8575 81.0691 35.9247 80.2756 36.7871Z" fill="#F7A600"/>
  </g>
  <path d="M84.5684 37.4951V31.4678H85.703V36.4702H88.0949V37.4951H84.5684Z" fill="#F7A600"/>
  <mask id="mask7_506_3704" style="mask-type:luminance" maskUnits="userSpaceOnUse" x="0" y="0" width="219" height="45">
    <path d="M219 0H0V44.3058H219V0Z" fill="white"/>
  </mask>
  <g mask="url(#mask7_506_3704)">
    <path d="M95.4844 37.0259C94.7582 37.6408 93.7847 37.649 93.511 37.649C93.1537 37.649 92.0012 37.6316 91.1643 36.7532C91.0616 36.6409 90.9504 36.4959 90.873 36.3597L91.8216 35.7023C92.0864 36.0945 92.5812 36.6074 93.691 36.6074C93.7423 36.6074 93.9558 36.6074 94.1348 36.5646C94.2634 36.5397 94.852 36.3775 94.852 35.8139C94.852 35.755 94.8431 35.5914 94.7408 35.4539C94.5372 35.1812 93.9897 35.1052 93.691 35.0364L92.9737 34.8753C92.6661 34.8065 92.3338 34.7391 92.0601 34.5926C91.7788 34.4479 91.1992 34.0629 91.1992 33.1931C91.1992 33.0555 91.2152 32.663 91.4291 32.3041C91.7015 31.8431 92.3588 31.3145 93.5797 31.3145C94.1173 31.3145 95.1781 31.3993 96.013 32.5354L95.0833 33.2263C94.8944 32.9279 94.4684 32.3304 93.5212 32.3304C93.461 32.3304 92.7014 32.3218 92.4526 32.7917C92.4026 32.8851 92.3852 32.9703 92.3852 33.0654C92.3852 33.1667 92.4102 33.2529 92.4611 33.3382C92.6076 33.5856 92.9399 33.6629 93.4949 33.7816L94.1173 33.9192C94.6895 34.0465 95.3218 34.2165 95.7232 34.6864C95.8943 34.8753 96.0729 35.1487 96.0729 35.7023C96.0729 36.2481 95.9018 36.667 95.4844 37.0259Z" fill="#F7A600"/>
  </g>
  <mask id="mask8_506_3704" style="mask-type:luminance" maskUnits="userSpaceOnUse" x="0" y="0" width="219" height="45">
    <path d="M219 0H0V44.3058H219V0Z" fill="white"/>
  </mask>
  <g mask="url(#mask8_506_3704)">
    <path d="M210.927 37.0378C210.215 37.64 209.26 37.6489 208.992 37.6489C208.641 37.6489 207.512 37.6311 206.69 36.7702C206.589 36.6617 206.481 36.519 206.405 36.3842L207.336 35.7406C207.594 36.1255 208.079 36.6278 209.168 36.6278C209.219 36.6278 209.429 36.6278 209.603 36.5854C209.728 36.5604 210.307 36.4017 210.307 35.8497C210.307 35.7919 210.298 35.6307 210.198 35.4973C209.997 35.2297 209.461 35.1547 209.168 35.0873L208.464 34.9286C208.164 34.8611 207.838 34.7944 207.569 34.6524C207.293 34.5101 206.724 34.1323 206.724 33.2799C206.724 33.1451 206.74 32.7601 206.949 32.4077C207.217 31.9563 207.863 31.4365 209.058 31.4365C209.587 31.4365 210.627 31.5214 211.444 32.6349L210.533 33.3124C210.348 33.0198 209.928 32.4337 209.001 32.4337C208.943 32.4337 208.197 32.4251 207.955 32.885C207.903 32.9774 207.887 33.0612 207.887 33.1533C207.887 33.2532 207.912 33.3384 207.962 33.4209C208.105 33.6631 208.431 33.7398 208.975 33.8558L209.587 33.9906C210.148 34.1155 210.767 34.2832 211.161 34.7441C211.328 34.9279 211.504 35.1965 211.504 35.7402C211.505 36.2754 211.337 36.6867 210.927 37.0378Z" fill="#F7A600"/>
  </g>
  <path d="M105.363 32.4748V33.9774H107.881V34.9417H105.363V37.4951H104.244V31.4678H108.232V32.4748H105.363Z" fill="#F7A600"/>
  <mask id="mask9_506_3704" style="mask-type:luminance" maskUnits="userSpaceOnUse" x="0" y="0" width="219" height="45">
    <path d="M219 0H0V44.3058H219V0Z" fill="white"/>
  </mask>
  <g mask="url(#mask9_506_3704)">
    <path d="M115.408 33.14C115.092 32.6291 114.615 32.3468 114.008 32.3468C113.632 32.3468 113.359 32.4666 113.239 32.5265C112.813 32.7568 112.284 33.32 112.284 34.4472C112.284 34.6785 112.291 35.7882 113.137 36.3429C113.505 36.5817 113.872 36.5982 114.026 36.5982C114.145 36.5982 114.417 36.5906 114.717 36.4545C115.161 36.2481 115.742 35.7369 115.766 34.6008C115.775 34.1064 115.682 33.5767 115.408 33.14ZM116.066 36.7871C115.929 36.9321 115.578 37.2819 115.042 37.4786C114.853 37.5471 114.504 37.6497 113.991 37.6497C113.137 37.6497 112.488 37.3674 111.925 36.7183C111.363 36.0777 111.123 35.3266 111.123 34.49C111.123 34.2939 111.13 33.8326 111.301 33.3204C111.694 32.1169 112.729 31.3145 114.017 31.3145C115.178 31.3145 115.871 31.9461 116.152 32.2709C116.468 32.6295 116.912 33.3293 116.903 34.4817C116.903 34.8575 116.86 35.9247 116.066 36.7871Z" fill="#F7A600"/>
  </g>
  <mask id="mask10_506_3704" style="mask-type:luminance" maskUnits="userSpaceOnUse" x="0" y="0" width="219" height="45">
    <path d="M219 0H0V44.3058H219V0Z" fill="white"/>
  </mask>
  <g mask="url(#mask10_506_3704)">
    <path d="M123.287 32.6199C123.091 32.4923 122.86 32.4416 122.382 32.4416H121.467V34.3182H121.869C122.527 34.3182 122.936 34.3182 123.209 34.1745C123.38 34.08 123.661 33.8583 123.661 33.371C123.662 33.2174 123.646 32.8588 123.287 32.6199ZM123.671 37.4951L122.484 35.2582H121.467V37.4951H120.35V31.4678H122.817C123.09 31.4678 123.903 31.4928 124.438 32.2025C124.788 32.6624 124.806 33.1835 124.806 33.3796C124.806 33.473 124.799 33.7717 124.695 34.0547C124.601 34.3021 124.311 34.8219 123.619 35.0358L124.96 37.4951H123.671Z" fill="#F7A600"/>
  </g>
  <path d="M133.02 37.4985V31.5869H137.223V32.5758H134.108V33.9644H136.963V34.9191H134.108V36.5014H137.431V37.4985H133.02Z" fill="#F7A600"/>
  <path d="M140.603 37.4985V31.5869H141.716V36.4939H144.059V37.4985H140.603Z" fill="#F7A600"/>
  <path d="M147.246 37.4985V31.5869H151.449V32.5758H148.335V33.9644H151.189V34.9191H148.335V36.5014H151.656V37.4985H147.246Z" fill="#F7A600"/>
  <mask id="mask11_506_3704" style="mask-type:luminance" maskUnits="userSpaceOnUse" x="0" y="0" width="219" height="45">
    <path d="M219 0H0V44.3058H219V0Z" fill="white"/>
  </mask>
  <g mask="url(#mask11_506_3704)">
    <path d="M159.324 36.6439C159.049 36.9964 158.403 37.6489 157.213 37.6489C157.013 37.6489 156.535 37.6329 156.024 37.3978C155.356 37.0792 154.452 36.2761 154.452 34.5272C154.452 34.2086 154.452 33.3624 154.996 32.5852C155.28 32.1739 155.958 31.4365 157.255 31.4365C158.385 31.4365 158.98 31.9994 159.249 32.3751C159.441 32.6602 159.559 32.9528 159.659 33.2624L158.563 33.5475C158.553 33.4725 158.52 33.2802 158.413 33.0777C158.185 32.6602 157.743 32.4429 157.273 32.4501C156.938 32.4501 156.704 32.5503 156.585 32.6089C156.149 32.8279 155.649 33.3966 155.649 34.5022C155.649 34.6699 155.658 35.372 155.999 35.8983C156.117 36.0759 156.259 36.2268 156.428 36.3356C156.778 36.5779 157.13 36.6029 157.29 36.6029C157.75 36.6029 158.091 36.4195 158.377 36.067C158.495 35.9243 158.587 35.7481 158.614 35.707C158.645 35.6304 158.67 35.5647 158.721 35.4134L159.768 35.8494C159.642 36.1502 159.526 36.3839 159.324 36.6439Z" fill="#F7A600"/>
  </g>
  <path d="M165.115 32.584V37.4982H164.01V32.584H162.402V31.5869H166.746V32.584H165.115Z" fill="#F7A600"/>
  <mask id="mask12_506_3704" style="mask-type:luminance" maskUnits="userSpaceOnUse" x="0" y="0" width="219" height="45">
    <path d="M219 0H0V44.3058H219V0Z" fill="white"/>
  </mask>
  <g mask="url(#mask12_506_3704)">
    <path d="M172.797 32.7168C172.605 32.5919 172.379 32.5416 171.912 32.5416H171.014V34.3839H171.409C172.053 34.3839 172.454 34.384 172.721 34.2413C172.887 34.1485 173.166 33.9316 173.166 33.4539C173.166 33.303 173.147 32.9516 172.797 32.7168ZM173.175 37.4982L172.01 35.3038H171.014V37.4982H169.918V31.5869H172.338C172.605 31.5869 173.401 31.6133 173.928 32.3082C174.271 32.7592 174.288 33.2705 174.288 33.4628C174.288 33.5555 174.28 33.8477 174.179 34.1239C174.087 34.3665 173.802 34.8774 173.124 35.0875L174.44 37.4982H173.175Z" fill="#F7A600"/>
  </g>
  <mask id="mask13_506_3704" style="mask-type:luminance" maskUnits="userSpaceOnUse" x="0" y="0" width="219" height="45">
    <path d="M219 0H0V44.3058H219V0Z" fill="white"/>
  </mask>
  <g mask="url(#mask13_506_3704)">
    <path d="M181.568 33.2275C181.258 32.7266 180.79 32.4491 180.193 32.4491C179.826 32.4491 179.559 32.5664 179.441 32.6256C179.022 32.8518 178.503 33.4038 178.503 34.509C178.503 34.7362 178.512 35.8237 179.341 36.3685C179.701 36.6025 180.061 36.6183 180.212 36.6183C180.329 36.6183 180.597 36.6111 180.891 36.4773C181.325 36.2761 181.894 35.7734 181.918 34.6599C181.927 34.175 181.835 33.6549 181.568 33.2275ZM182.211 36.803C182.08 36.9454 181.736 37.2893 181.207 37.4802C181.023 37.548 180.681 37.6493 180.177 37.6493C179.341 37.6493 178.705 37.3718 178.153 36.7367C177.599 36.1081 177.365 35.372 177.365 34.5511C177.365 34.3585 177.372 33.9057 177.542 33.4034C177.926 32.2235 178.939 31.4365 180.203 31.4365C181.34 31.4365 182.019 32.0566 182.295 32.3738C182.605 32.7262 183.042 33.4123 183.033 34.5432C183.033 34.9111 182.991 35.9582 182.211 36.803Z" fill="#F7A600"/>
  </g>
  <path d="M190.021 37.4985L187.434 33.354L187.501 37.4985H186.422V31.5869H187.418L190.037 35.7565L189.905 31.5869H190.99V37.4985H190.021Z" fill="#F7A600"/>
  <path d="M195.737 31.5869H194.647V37.4979H195.737V31.5869Z" fill="#F7A600"/>
  <mask id="mask14_506_3704" style="mask-type:luminance" maskUnits="userSpaceOnUse" x="0" y="0" width="219" height="45">
    <path d="M219 0H0V44.3058H219V0Z" fill="white"/>
  </mask>
  <g mask="url(#mask14_506_3704)">
    <path d="M203.919 36.6439C203.644 36.9964 202.997 37.6489 201.808 37.6489C201.608 37.6489 201.132 37.6329 200.62 37.3978C199.951 37.0792 199.045 36.2761 199.045 34.5272C199.045 34.2086 199.045 33.3624 199.59 32.5852C199.875 32.1739 200.552 31.4365 201.852 31.4365C202.982 31.4365 203.575 31.9994 203.842 32.3751C204.036 32.6602 204.154 32.9528 204.252 33.2624L203.159 33.5475C203.149 33.4725 203.115 33.2802 203.006 33.0777C202.782 32.6602 202.336 32.4429 201.867 32.4501C201.533 32.4501 201.298 32.5503 201.181 32.6089C200.746 32.8279 200.244 33.3966 200.244 34.5022C200.244 34.6699 200.253 35.372 200.596 35.8983C200.713 36.0759 200.854 36.2268 201.022 36.3356C201.374 36.5779 201.726 36.6029 201.884 36.6029C202.344 36.6029 202.688 36.4195 202.974 36.067C203.091 35.9243 203.182 35.7481 203.208 35.707C203.242 35.6304 203.266 35.5647 203.315 35.4134L204.363 35.8494C204.238 36.1502 204.12 36.3839 203.919 36.6439Z" fill="#F7A600"/>
  </g>
</svg>