<svg xmlns="http://www.w3.org/2000/svg" width="20" height="15" viewBox="0 0 20 15" fill="none">
  <mask id="path-1-inside-1_506_3912" fill="white">
    <path d="M17.0458 0H2.59083L0 5.18167L9.81833 15L19.6367 5.18167L17.0458 0ZM16.4737 0.925524L18.3247 4.62762H13.2955L12.6784 0.925524H16.4737ZM7.89646 0.925524H11.7402L12.3573 4.62762H7.27933L7.89646 0.925524ZM3.16296 0.925524H6.95829L6.34115 4.62762H1.31191L3.16296 0.925524ZM1.68022 5.55315H6.39976L8.75967 12.6326L1.68022 5.55315ZM7.375 5.55315H12.2617L9.81833 12.8828L7.375 5.55315ZM10.877 12.6326L13.2369 5.55315H17.9564L10.877 12.6326Z"/>
  </mask>
  <path d="M17.0458 0H2.59083L0 5.18167L9.81833 15L19.6367 5.18167L17.0458 0ZM16.4737 0.925524L18.3247 4.62762H13.2955L12.6784 0.925524H16.4737ZM7.89646 0.925524H11.7402L12.3573 4.62762H7.27933L7.89646 0.925524ZM3.16296 0.925524H6.95829L6.34115 4.62762H1.31191L3.16296 0.925524ZM1.68022 5.55315H6.39976L8.75967 12.6326L1.68022 5.55315ZM7.375 5.55315H12.2617L9.81833 12.8828L7.375 5.55315ZM10.877 12.6326L13.2369 5.55315H17.9564L10.877 12.6326Z" fill="#F2AE14"/>
  <path d="M17.0458 0L18.8347 -0.894427L18.2819 -2H17.0458V0ZM2.59083 0V-2H1.35477L0.80198 -0.894427L2.59083 0ZM0 5.18167L-1.78885 4.28724L-2.43352 5.57658L-1.41421 6.59588L0 5.18167ZM9.81833 15L8.40411 16.4142L9.81833 17.8284L11.2325 16.4142L9.81833 15ZM19.6367 5.18167L21.0509 6.59588L22.0702 5.57658L21.4255 4.28724L19.6367 5.18167ZM16.4737 0.925524L18.2626 0.0310979L17.7098 -1.07448H16.4737V0.925524ZM18.3247 4.62762V6.62762H21.5608L20.1136 3.73319L18.3247 4.62762ZM13.2955 4.62762L11.3227 4.95648L11.6013 6.62762H13.2955V4.62762ZM12.6784 0.925524V-1.07448H10.3174L10.7056 1.25438L12.6784 0.925524ZM7.89646 0.925524V-1.07448H6.20227L5.92369 0.596664L7.89646 0.925524ZM11.7402 0.925524L13.713 0.596664L13.4344 -1.07448H11.7402V0.925524ZM12.3573 4.62762V6.62762H14.7183L14.3301 4.29876L12.3573 4.62762ZM7.27933 4.62762L5.30655 4.29876L4.91833 6.62762H7.27933V4.62762ZM3.16296 0.925524V-1.07448H1.92689L1.37411 0.0310972L3.16296 0.925524ZM6.95829 0.925524L8.93106 1.25438L9.31928 -1.07448H6.95829V0.925524ZM6.34115 4.62762V6.62762H8.03535L8.31393 4.95648L6.34115 4.62762ZM1.31191 4.62762L-0.476942 3.73319L-1.92416 6.62762H1.31191V4.62762ZM1.68022 5.55315V3.55315H-3.1482L0.26601 6.96736L1.68022 5.55315ZM6.39976 5.55315L8.29712 4.92067L7.84126 3.55315H6.39976V5.55315ZM8.75967 12.6326L7.34546 14.0468L10.657 12.0001L8.75967 12.6326ZM7.375 5.55315V3.55315H4.60011L5.47764 6.18563L7.375 5.55315ZM12.2617 5.55315L14.1591 6.18564L15.0366 3.55315H12.2617V5.55315ZM9.81833 12.8828L7.92097 13.5153L9.81831 19.2071L11.7157 13.5153L9.81833 12.8828ZM10.877 12.6326L8.97963 12.0001L12.2912 14.0468L10.877 12.6326ZM13.2369 5.55315V3.55315H11.7954L11.3395 4.92067L13.2369 5.55315ZM17.9564 5.55315L19.3706 6.96736L22.7849 3.55315H17.9564V5.55315ZM17.0458 -2H2.59083V2H17.0458V-2ZM0.80198 -0.894427L-1.78885 4.28724L1.78885 6.0761L4.37969 0.894427L0.80198 -0.894427ZM-1.41421 6.59588L8.40411 16.4142L11.2325 13.5858L1.41421 3.76746L-1.41421 6.59588ZM11.2325 16.4142L21.0509 6.59588L18.2224 3.76746L8.40411 13.5858L11.2325 16.4142ZM21.4255 4.28724L18.8347 -0.894427L15.257 0.894427L17.8478 6.0761L21.4255 4.28724ZM14.6848 1.81995L16.5359 5.52205L20.1136 3.73319L18.2626 0.0310979L14.6848 1.81995ZM18.3247 2.62762H13.2955V6.62762H18.3247V2.62762ZM15.2683 4.29876L14.6511 0.596664L10.7056 1.25438L11.3227 4.95648L15.2683 4.29876ZM12.6784 2.92552H16.4737V-1.07448H12.6784V2.92552ZM7.89646 2.92552H11.7402V-1.07448H7.89646V2.92552ZM9.76741 1.25438L10.3846 4.95648L14.3301 4.29876L13.713 0.596664L9.76741 1.25438ZM12.3573 2.62762H7.27933V6.62762H12.3573V2.62762ZM9.25211 4.95648L9.86924 1.25438L5.92369 0.596664L5.30655 4.29876L9.25211 4.95648ZM3.16296 2.92552H6.95829V-1.07448H3.16296V2.92552ZM4.98551 0.596664L4.36837 4.29876L8.31393 4.95648L8.93106 1.25438L4.98551 0.596664ZM6.34115 2.62762H1.31191V6.62762H6.34115V2.62762ZM3.10077 5.52205L4.95181 1.81995L1.37411 0.0310972L-0.476942 3.73319L3.10077 5.52205ZM1.68022 7.55315H6.39976V3.55315H1.68022V7.55315ZM4.5024 6.18562L6.86231 13.2651L10.657 12.0001L8.29712 4.92067L4.5024 6.18562ZM10.1739 11.2184L3.09444 4.13893L0.26601 6.96736L7.34546 14.0468L10.1739 11.2184ZM7.375 7.55315H12.2617V3.55315H7.375V7.55315ZM10.3643 4.92065L7.92097 12.2503L11.7157 13.5153L14.1591 6.18564L10.3643 4.92065ZM11.7157 12.2503L9.27236 4.92067L5.47764 6.18563L7.92097 13.5153L11.7157 12.2503ZM12.7743 13.2651L15.1343 6.18562L11.3395 4.92067L8.97963 12.0001L12.7743 13.2651ZM13.2369 7.55315H17.9564V3.55315H13.2369V7.55315ZM16.5422 4.13893L9.46277 11.2184L12.2912 14.0468L19.3706 6.96736L16.5422 4.13893Z" fill="#F2AE14" mask="url(#path-1-inside-1_506_3912)"/>
</svg>