<svg xmlns="http://www.w3.org/2000/svg" width="12" height="9" viewBox="0 0 12 9" fill="none">
  <path d="M12 1.10769C12 0.813914 11.8839 0.532168 11.6772 0.324436C11.4705 0.116703 11.1901 0 10.8978 0H1.10218C0.809865 0 0.529521 0.116703 0.322821 0.324436C0.116122 0.532168 0 0.813914 0 1.10769V7.89231C0 8.18609 0.116122 8.46783 0.322821 8.67556C0.529521 8.8833 0.809865 9 1.10218 9H10.8978C11.1901 9 11.4705 8.8833 11.6772 8.67556C11.8839 8.46783 12 8.18609 12 7.89231V1.10769ZM1.10218 0.553846H10.8978C10.9269 0.554307 10.9559 0.557085 10.9846 0.562154L6.39816 5.37923C6.34674 5.43305 6.28502 5.47587 6.21671 5.50512C6.14841 5.53436 6.07493 5.54944 6.00069 5.54944C5.92644 5.54944 5.85296 5.53436 5.78466 5.50512C5.71636 5.47587 5.65464 5.43305 5.60321 5.37923L1.01538 0.562154C1.04405 0.557085 1.07308 0.554307 1.10218 0.553846ZM0.551091 1.10769C0.551839 1.04136 0.564439 0.975701 0.588289 0.913846L3.48152 3.95308L0.551091 7.57246V1.10769ZM10.8978 8.44615H1.10218C1.02662 8.44591 0.951911 8.43005 0.882704 8.39956C0.813497 8.36907 0.751268 8.32461 0.699885 8.26892L3.8659 4.36015L5.20505 5.76692C5.30793 5.87477 5.43144 5.96059 5.56818 6.01922C5.70491 6.07784 5.85203 6.10807 6.00069 6.10807C6.14935 6.10807 6.29647 6.07784 6.4332 6.01922C6.56993 5.96059 6.69345 5.87477 6.79633 5.76692L8.0473 4.45292L11.2987 8.27308C11.2469 8.32733 11.1846 8.37042 11.1157 8.3997C11.0468 8.42898 10.9726 8.44384 10.8978 8.44338V8.44615ZM11.4489 7.59738L8.42893 4.04723L11.4117 0.913846C11.4356 0.975701 11.4482 1.04136 11.4489 1.10769V7.59738Z" fill="#333333"/>
</svg>