<svg xmlns="http://www.w3.org/2000/svg" width="64" height="64" viewBox="0 0 64 64" fill="none">
  <path d="M31.9994 42.631C26.1263 42.631 21.3643 37.8719 21.3643 32.0016C21.3643 26.1274 26.1263 21.3649 31.9994 21.3649C37.8716 21.3649 42.6341 26.1274 42.6341 32.0016C42.634 37.8719 37.8721 42.631 31.9994 42.631ZM60.517 24.1633L39.8382 3.4837C39.8382 3.4837 32.0019 -4.35462 24.165 3.4837L3.4823 24.1633C3.4823 24.1633 -4.35287 32.0016 3.4823 39.8362L24.165 60.5181C24.165 60.5181 32.0019 68.3524 39.8382 60.5181L60.517 39.8361C60.517 39.8361 68.3538 32.0016 60.517 24.1633Z" fill="#F2AE14"/>
</svg>