<svg width="45" height="45" viewBox="0 0 45 45" fill="none" xmlns="http://www.w3.org/2000/svg">
<path d="M22.1521 29.5129C18.0866 29.5129 14.79 26.2184 14.79 22.1545C14.79 18.088 18.0866 14.791 22.1521 14.791C26.2173 14.791 29.5143 18.088 29.5143 22.1545C29.5143 26.2184 26.2177 29.5129 22.1521 29.5129ZM41.8943 16.7281L27.5789 2.41271C27.5789 2.41271 22.1539 -3.0137 16.7288 2.41271L2.41067 16.7281C2.41067 16.7281 -3.01334 22.1545 2.41067 27.5782L16.7288 41.8953C16.7288 41.8953 22.1539 47.319 27.5789 41.8953L41.8943 27.5782C41.8943 27.5782 47.3194 22.1545 41.8943 16.7281Z" fill="#F7A600"/>
</svg>
