<svg xmlns="http://www.w3.org/2000/svg" width="19" height="18" viewBox="0 0 19 18" fill="none">
  <path d="M17.2586 4.87067H16.541C17.0438 4.3113 17.3513 3.56751 17.3513 2.75166C17.3513 2.50862 17.3238 2.27229 17.2726 2.04512L17.2769 2.06649C17.0096 1.02531 16.1749 0.232664 15.1297 0.031144L15.1126 0.0280907C14.9869 0.00977066 14.8417 0 14.694 0C13.5506 0 12.5505 0.617994 12.0105 1.53766L12.0026 1.55231L9.93713 4.52565L7.87232 1.55231C7.32256 0.617384 6.32249 0 5.17781 0C5.03076 0 4.88676 0.0103813 4.7452 0.0299226L4.76168 0.0280907C3.69937 0.231443 2.86405 1.0247 2.60168 2.04756L2.5974 2.06649C2.54981 2.27229 2.52235 2.50923 2.52235 2.75227C2.52235 3.56812 2.82988 4.3113 3.3351 4.87373L3.33266 4.87067H2.61449C1.68825 4.8719 0.937744 5.62302 0.936523 6.55001V8.38201C0.938964 9.14351 1.44846 9.78532 2.14527 9.98684L2.15686 9.98989V16.3207C2.15808 17.2477 2.90859 17.9988 3.83483 18H16.0382C16.9645 17.9988 17.715 17.2477 17.7162 16.3207V9.98989C18.424 9.78532 18.9335 9.14351 18.9365 8.38262V6.55001C18.9353 5.62302 18.1848 4.8719 17.2586 4.87067ZM12.7525 2.07504C13.1405 1.3795 13.8715 0.91661 14.7105 0.91661C14.7941 0.91661 14.8765 0.921495 14.9576 0.930045L14.9478 0.929434C15.6556 1.06622 16.2115 1.59567 16.386 2.27779L16.3891 2.29061C16.4068 2.40603 16.4171 2.53915 16.4171 2.67411C16.4171 3.58583 15.9565 4.38947 15.2548 4.86518L15.2456 4.87129H10.8121L12.7525 2.07504ZM3.48459 2.29C3.66154 1.59506 4.2174 1.06622 4.91361 0.931266L4.9252 0.929434C4.99476 0.921495 5.07591 0.917221 5.15768 0.917221C5.99788 0.917221 6.72947 1.3795 7.11388 2.06344L7.11998 2.07443L9.06154 4.87006H4.62805C3.9172 4.38886 3.45652 3.58461 3.45652 2.6735C3.45652 2.53793 3.4669 2.40541 3.48642 2.27534L3.48459 2.29ZM1.85178 8.38201V6.55001C1.85239 6.12865 2.19347 5.78728 2.61449 5.78667H9.4789V9.14534H2.61449C2.19347 9.14473 1.85239 8.80337 1.85178 8.38201ZM3.07212 16.3207V10.0613H9.4789V17.084H3.83483C3.41381 17.0834 3.07273 16.742 3.07212 16.3207ZM16.8009 16.3207C16.8003 16.742 16.4592 17.0834 16.0382 17.084H10.3942V10.0613H16.8009V16.3207ZM18.0213 8.38201C18.0207 8.80337 17.6796 9.14473 17.2586 9.14534H10.3942V5.78667H17.2586C17.6796 5.78728 18.0207 6.12865 18.0213 6.55001V8.38201Z" fill="#F2AE14"/>
</svg>