<svg xmlns="http://www.w3.org/2000/svg" width="18" height="18" viewBox="0 0 18 18" fill="none">
  <path d="M9 1C4.58175 1 1 4.58175 1 9C1 13.4183 4.58175 17 9 17C13.4183 17 17 13.4183 17 9C17 4.58175 13.4183 1 9 1ZM13.493 8.75C13.4585 7.3545 13.1395 6.0305 12.5897 4.83325C13.2527 4.57775 13.882 4.254 14.4685 3.86975C15.6745 5.15475 16.432 6.86375 16.494 8.75H13.493ZM9.33325 16.4915C9.30575 16.4928 9.27775 16.4927 9.25 16.4937V13.5087C10.081 13.5305 10.8868 13.654 11.6512 13.8762C11.046 14.8852 10.2572 15.771 9.33325 16.4915ZM12.1372 14.0352C12.708 14.2355 13.2527 14.4895 13.768 14.7897C12.7702 15.6122 11.5557 16.1805 10.2235 16.3993C10.9755 15.7153 11.621 14.918 12.1372 14.0352ZM6.3485 13.8762C7.11325 13.6537 7.919 13.5305 8.75 13.5087V16.4935C8.72225 16.4925 8.69425 16.4925 8.66675 16.4913C7.7425 15.771 6.954 14.8852 6.3485 13.8762ZM7.77625 16.399C6.444 16.1805 5.2295 15.6123 4.23175 14.7895C4.74725 14.4895 5.29175 14.2352 5.8625 14.0352C6.37875 14.918 7.0245 15.7153 7.77625 16.399ZM1.50625 8.75C1.56825 6.86375 2.3255 5.15475 3.53175 3.86975C4.11825 4.25375 4.74725 4.5775 5.4105 4.83325C4.8605 6.0305 4.5415 7.3545 4.507 8.75H1.50625ZM11.8925 4.549C11.0562 4.81625 10.169 4.9665 9.25 4.9905V1.50625C9.27775 1.50725 9.30575 1.50725 9.33325 1.5085C10.3853 2.3285 11.2618 3.36325 11.8925 4.549ZM10.2238 1.601C11.7098 1.845 13.0483 2.525 14.104 3.5065C13.56 3.85425 12.98 4.149 12.368 4.38125C11.8195 3.3315 11.0922 2.3905 10.2238 1.601ZM8.75 1.50625V4.9905C7.83075 4.9665 6.9435 4.8165 6.1075 4.549C6.73825 3.36325 7.61475 2.3285 8.66675 1.5085C8.69425 1.50725 8.72225 1.50725 8.75 1.50625ZM5.63225 4.38125C5.02025 4.149 4.44 3.85425 3.89625 3.5065C4.952 2.525 6.29025 1.845 7.7765 1.601C6.90775 2.3905 6.1805 3.3315 5.63225 4.38125ZM5.883 5.00225C6.7885 5.2995 7.751 5.4705 8.75 5.49525V8.75H5.00775C5.0425 7.4135 5.35075 6.146 5.883 5.00225ZM8.75 9.25V13.009C7.829 13.032 6.93875 13.1753 6.09625 13.4312C5.433 12.178 5.047 10.7572 5.00775 9.25H8.75ZM9.25 13.009V9.25H12.9923C12.9533 10.7572 12.567 12.178 11.9037 13.4315C11.0612 13.1753 10.171 13.032 9.25 13.009ZM9.25 8.75V5.495C10.249 5.47025 11.2115 5.2995 12.117 5.002C12.6493 6.14575 12.9575 7.4135 12.9923 8.74975L9.25 8.75ZM1.50625 9.25H4.507C4.5455 10.8132 4.942 12.2865 5.61875 13.5922C4.99475 13.817 4.401 14.1032 3.8415 14.4412C2.45675 13.1283 1.5735 11.293 1.50625 9.25ZM14.1585 14.4415C13.599 14.1032 13.0052 13.8172 12.3812 13.5925C13.058 12.2865 13.4545 10.8135 13.493 9.25025H16.4937C16.4265 11.293 15.5433 13.1283 14.1585 14.4415Z" fill="#333333" stroke="#333333" stroke-width="0.3"/>
</svg>