<svg xmlns="http://www.w3.org/2000/svg" width="17" height="18" viewBox="0 0 17 18" fill="none">
  <path d="M15.1758 7.02128C15.7882 7.39218 16.2848 7.9425 16.6049 8.60512C16.9251 9.26774 17.055 10.014 16.9788 10.753C16.9026 11.4919 16.6236 12.1916 16.1759 12.7666C15.7282 13.3417 15.131 13.7673 14.4573 13.9915C14.2192 15.1281 13.6191 16.145 12.7565 16.874C11.8939 17.603 10.8205 18.0002 9.71398 18H7.89337C7.73241 18 7.57806 17.9328 7.46425 17.813C7.35044 17.6933 7.2865 17.531 7.2865 17.3617C7.2865 17.1924 7.35044 17.0301 7.46425 16.9104C7.57806 16.7907 7.73241 16.7234 7.89337 16.7234H9.71398C10.4672 16.7236 11.2021 16.4782 11.8172 16.021C12.4324 15.5637 12.8976 14.9171 13.1489 14.1702H12.7483C12.5874 14.1702 12.433 14.103 12.3192 13.9833C12.2054 13.8636 12.1415 13.7012 12.1415 13.5319V7.14894C12.1415 6.97965 12.2054 6.8173 12.3192 6.69759C12.433 6.57789 12.5874 6.51064 12.7483 6.51064H13.3552C13.5518 6.51064 13.7448 6.52723 13.9342 6.55915C13.7975 5.14327 13.1661 3.83113 12.1622 2.87696C11.1582 1.9228 9.85332 1.39454 8.50024 1.39454C7.14715 1.39454 5.84224 1.9228 4.83832 2.87696C3.8344 3.83113 3.20295 5.14327 3.06632 6.55915C3.25778 6.52689 3.45138 6.51067 3.64528 6.51064H4.25215C4.4131 6.51064 4.56746 6.57789 4.68127 6.69759C4.79508 6.8173 4.85902 6.97965 4.85902 7.14894V13.5319C4.85902 13.7012 4.79508 13.8636 4.68127 13.9833C4.56746 14.103 4.4131 14.1702 4.25215 14.1702H3.64528C2.84297 14.1712 2.06283 13.8934 1.42607 13.38C0.78931 12.8666 0.331577 12.1465 0.123992 11.3313C-0.0835933 10.5162 -0.0294081 9.6518 0.278129 8.87241C0.585666 8.09301 1.12933 7.44226 1.82467 7.02128C1.82467 5.15912 2.52798 3.37323 3.7799 2.05648C5.03181 0.73974 6.72977 0 8.50024 0C10.2707 0 11.9687 0.73974 13.2206 2.05648C14.4725 3.37323 15.1758 5.15912 15.1758 7.02128ZM3.64528 7.78723C3.00147 7.78723 2.38403 8.05623 1.92879 8.53505C1.47355 9.01386 1.2178 9.66328 1.2178 10.3404C1.2178 11.0176 1.47355 11.667 1.92879 12.1458C2.38403 12.6246 3.00147 12.8936 3.64528 12.8936V7.78723ZM15.7827 10.3404C15.7827 9.66328 15.5269 9.01386 15.0717 8.53505C14.6164 8.05623 13.999 7.78723 13.3552 7.78723V12.8936C13.999 12.8936 14.6164 12.6246 15.0717 12.1458C15.5269 11.667 15.7827 11.0176 15.7827 10.3404Z" fill="#F2AE14"/>
</svg>