<svg xmlns="http://www.w3.org/2000/svg" width="18" height="18" viewBox="0 0 18 18" fill="none">
  <path d="M16.5596 0.00161439H1.54121C1.34764 -0.0074529 1.15417 0.0217405 0.971888 0.0875402C0.789608 0.15334 0.6221 0.254441 0.478936 0.38505C0.335783 0.515671 0.219786 0.673246 0.137607 0.848742C0.0554277 1.02425 0.0086623 1.21424 0 1.40783V16.46C0.0113397 16.8651 0.177363 17.2507 0.463973 17.5372C0.750583 17.8238 1.13604 17.9899 1.54121 18.0012H16.5596C16.9535 17.9837 17.3248 17.8125 17.594 17.5244C17.8632 17.2363 18.0088 16.8542 17.9996 16.46V1.40783C18.0028 1.2194 17.9675 1.0323 17.8959 0.858001C17.8242 0.683709 17.7177 0.525886 17.5828 0.394208C17.448 0.262541 17.2877 0.159809 17.1118 0.0922989C16.9358 0.0247892 16.7479 -0.00606919 16.5596 0.00161439ZM5.62487 15.0088H3.00368V6.98774H5.62487V15.0088ZM4.37615 5.77273C4.19324 5.77911 4.01098 5.74759 3.84084 5.68016C3.67069 5.61273 3.51632 5.51084 3.38744 5.38089C3.25856 5.25095 3.15793 5.09576 3.09189 4.92506C3.02584 4.75437 2.99582 4.57187 3.00368 4.38901C2.99559 4.20418 3.02623 4.01971 3.09362 3.84742C3.16102 3.67512 3.26368 3.51881 3.39503 3.38853C3.52638 3.25823 3.6835 3.15684 3.85633 3.09085C4.02917 3.02485 4.21389 2.99571 4.39865 3.0053C4.58156 2.99893 4.76382 3.03044 4.93396 3.09787C5.10411 3.1653 5.25848 3.26719 5.38735 3.39714C5.51624 3.52708 5.61687 3.68227 5.68291 3.85296C5.74896 4.02366 5.77898 4.20616 5.77112 4.38901C5.77921 4.57385 5.74857 4.75832 5.68118 4.93061C5.61378 5.10291 5.51111 5.25922 5.37977 5.3895C5.24842 5.51979 5.0913 5.62119 4.91847 5.68718C4.74563 5.75318 4.5609 5.78232 4.37615 5.77273ZM15.0072 15.0088H12.3747V10.6214C12.3747 9.57518 12.0035 8.8552 11.0697 8.8552C10.7797 8.85767 10.4975 8.94981 10.2619 9.119C10.0262 9.2882 9.8487 9.52613 9.75353 9.80017C9.6804 10.0056 9.6498 10.2237 9.66353 10.4414V15.0088H7.07609V6.98774H9.66353V8.11271C9.89359 7.69006 10.2359 7.33929 10.6528 7.099C11.0697 6.85882 11.5449 6.73853 12.026 6.75146C13.7247 6.75146 15.0072 7.87647 15.0072 10.2727V15.0088Z" fill="#F2AE14"/>
</svg>