<svg xmlns="http://www.w3.org/2000/svg" width="15" height="16" viewBox="0 0 15 16" fill="none">
  <path d="M14.9978 14.5527L14.4053 4.48784H11.4452V3.67528C11.4452 1.64864 9.68525 0 7.52187 0C5.35849 0 3.59854 1.64872 3.59854 3.67528V4.48784H0.510358L0.000598984 14.5962L8.29499e-05 14.6138C-0.0041017 14.9775 0.15022 15.3346 0.423247 15.5929C0.69636 15.8515 1.0758 16 1.46429 16H13.5358C13.9362 16 14.3239 15.8438 14.5993 15.5712C14.8747 15.2986 15.0199 14.9274 14.9978 14.5527ZM4.62182 3.67528C4.62182 2.17728 5.92273 0.95856 7.52187 0.95856C9.12092 0.95856 10.4219 2.17728 10.4219 3.67528V4.48784H4.62174V3.67528H4.62182ZM13.8561 14.9122C13.773 14.9942 13.6563 15.0414 13.5357 15.0414H1.4642C1.3472 15.0414 1.23302 14.9967 1.15061 14.9186C1.07016 14.8426 1.02396 14.7381 1.02319 14.6309L1.48632 5.4464H3.59838V6.66024C3.59838 6.92496 3.82742 7.13952 4.11001 7.13952C4.3926 7.13952 4.62165 6.92496 4.62165 6.66024V5.4464H10.4218V6.66024C10.4218 6.92496 10.6509 7.13952 10.9335 7.13952C11.2161 7.13952 11.445 6.92496 11.445 6.66024V5.4464H13.4367L13.9758 14.6056C13.9827 14.7184 13.939 14.8302 13.8561 14.9122Z" fill="#333333"/>
</svg>