<svg xmlns="http://www.w3.org/2000/svg" width="15" height="15" viewBox="0 0 15 15" fill="none">
  <path d="M6.42894 11.7865C7.84986 11.7865 9.21258 11.2221 10.2173 10.2173C11.2221 9.21258 11.7865 7.84986 11.7865 6.42894C11.7865 5.00802 11.2221 3.6453 10.2173 2.64056C9.21258 1.63582 7.84986 1.07136 6.42894 1.07136C5.00802 1.07136 3.6453 1.63582 2.64056 2.64056C1.63582 3.6453 1.07136 5.00802 1.07136 6.42894C1.07136 7.84986 1.63582 9.21258 2.64056 10.2173C3.6453 11.2221 5.00802 11.7865 6.42894 11.7865ZM11.4072 10.4975L15 14.0903L14.0903 15L10.4975 11.4072C9.22038 12.4509 7.59099 12.9639 5.9463 12.84C4.3016 12.7162 2.76742 11.965 1.66103 10.7417C0.554649 9.51851 -0.0393015 7.91686 0.00202008 6.26803C0.0433416 4.6192 0.716774 3.04931 1.88304 1.88304C3.04931 0.716774 4.6192 0.0433416 6.26803 0.00202008C7.91686 -0.0393015 9.51851 0.554649 10.7417 1.66103C11.965 2.76742 12.7162 4.3016 12.84 5.9463C12.9639 7.59099 12.4509 9.22038 11.4072 10.4975Z" fill="#333333"/>
</svg>