<svg xmlns="http://www.w3.org/2000/svg" width="15" height="20" viewBox="0 0 15 20" fill="none">
  <path d="M14.5575 3.06594L7.8075 0.0659359C7.71081 0.0224726 7.60601 0 7.5 0C7.39399 0 7.28919 0.0224726 7.1925 0.0659359L0.4425 3.06594C0.310913 3.12509 0.199178 3.22093 0.120692 3.34199C0.0422066 3.46304 0.000301021 3.60417 0 3.74844V10.1684C0.00516615 11.0815 0.202119 11.9833 0.578096 12.8153C0.954072 13.6474 1.50068 14.3911 2.1825 14.9984L7.005 19.2809C7.14187 19.4012 7.31782 19.4675 7.5 19.4675C7.68218 19.4675 7.85813 19.4012 7.995 19.2809L12.8175 14.9984C13.4993 14.3911 14.0459 13.6474 14.4219 12.8153C14.7979 11.9833 14.9948 11.0815 15 10.1684V3.74844C14.9997 3.60417 14.9578 3.46304 14.8793 3.34199C14.8008 3.22093 14.6891 3.12509 14.5575 3.06594ZM13.5 10.1684C13.5014 10.8768 13.3524 11.5774 13.0628 12.2239C12.7732 12.8704 12.3496 13.448 11.82 13.9184L7.5 17.7434L3.18 13.9034C2.65042 13.433 2.22681 12.8554 1.93719 12.2089C1.64757 11.5624 1.49855 10.8618 1.5 10.1534V4.23594L7.5 1.56594L13.5 4.23594V10.1684Z" fill="#F2AE14"/>
  <path d="M5.25041 8.46571C5.10918 8.32448 4.91764 8.24514 4.71791 8.24514C4.51819 8.24514 4.32664 8.32448 4.18541 8.46571C4.04418 8.60693 3.96484 8.79848 3.96484 8.99821C3.96484 9.19793 4.04418 9.38948 4.18541 9.53071L6.06041 11.4057C6.13013 11.476 6.21309 11.5318 6.30448 11.5699C6.39587 11.608 6.4939 11.6276 6.59291 11.6276C6.69192 11.6276 6.78995 11.608 6.88134 11.5699C6.97274 11.5318 7.05569 11.476 7.12541 11.4057L10.8754 7.65571C11.0166 7.50652 11.0928 7.30735 11.0872 7.10199C11.0816 6.89664 10.9946 6.70193 10.8454 6.56071C10.6962 6.41948 10.4971 6.3433 10.2917 6.34892C10.0863 6.35455 9.89164 6.44152 9.75041 6.59071L6.53291 9.81571L5.25041 8.46571Z" fill="#F2AE14"/>
</svg>