<svg xmlns="http://www.w3.org/2000/svg" width="13" height="12" viewBox="0 0 13 12" fill="none">
  <path d="M11.0293 0.958246L11.0293 0.958264L11.9699 2.49574C12.3841 3.17136 12.3494 3.95378 12.051 4.70839C11.7526 5.46273 11.1894 6.19304 10.5389 6.77075L10.5389 6.77075L6.64714 10.2252L6.62391 10.1991L6.64714 10.2252C5.63593 11.1225 4.26197 11.7868 3.08383 11.607M11.0293 0.958246L8.22809 5.5999L5.65412 7.88759C5.45697 8.06206 5.19565 8.15307 4.92736 8.14031C4.65907 8.12754 4.40609 8.01205 4.22384 7.8194L3.85637 7.43081C3.85637 7.4308 3.85636 7.4308 3.85635 7.43079C3.69609 7.26002 3.47728 7.15222 3.24187 7.12781C3.00647 7.1034 2.77068 7.16405 2.57965 7.29842C2.57963 7.29844 2.57961 7.29845 2.57959 7.29846L0.631357 8.66126C0.507239 8.74757 0.40626 8.86162 0.336875 8.99401C0.267487 9.12641 0.231728 9.27329 0.232588 9.42245C0.233448 9.5716 0.270899 9.71866 0.341752 9.85142C0.412601 9.98419 0.514796 10.0988 0.63979 10.1859L2.13529 11.2313L2.15534 11.2026L2.13529 11.2313C2.41677 11.4281 2.74203 11.5569 3.08383 11.607M11.0293 0.958246C10.9506 0.829698 10.8417 0.720986 10.7118 0.640994C10.5819 0.561004 10.4347 0.511988 10.2821 0.497947C10.1296 0.483905 9.97605 0.505233 9.83419 0.560232C9.69233 0.615232 9.56616 0.70235 9.46614 0.814496L9.46612 0.814514M11.0293 0.958246L9.46612 0.814514M3.08383 11.607C3.08379 11.607 3.08376 11.6069 3.08372 11.6069L3.08901 11.5723L3.08393 11.607C3.0839 11.607 3.08386 11.607 3.08383 11.607ZM9.46612 0.814514L7.89672 2.5766C7.89671 2.57661 7.8967 2.57663 7.89668 2.57664C7.74167 2.7498 7.65811 2.97301 7.66209 3.20373C7.66608 3.43444 7.75733 3.6562 7.91811 3.82682L7.91816 3.82687M9.46612 0.814514L7.91816 3.82687M7.91816 3.82687L8.28574 4.21544M7.91816 3.82687L8.28574 4.21544M6.32261 9.87768L6.32262 9.87767L10.2143 6.4232C10.779 5.92188 11.2859 5.27438 11.5656 4.61362C11.8454 3.95261 11.8959 3.284 11.5585 2.73339L11.5585 2.73337L10.6178 1.19589L6.32261 9.87768ZM6.32261 9.87768C5.75805 10.3791 5.04842 10.8121 4.34506 11.0243C3.64133 11.2367 2.9495 11.2267 2.41344 10.8514L2.41342 10.8514M6.32261 9.87768L2.41342 10.8514M2.41342 10.8514L0.917874 9.80596L0.917782 9.8059M2.41342 10.8514L0.917782 9.8059M0.917782 9.8059C0.85468 9.76209 0.80323 9.70444 0.767636 9.63782C0.732045 9.57122 0.713323 9.49755 0.712942 9.42297C0.712561 9.34839 0.730528 9.27495 0.765376 9.20875C0.800227 9.14255 0.850987 9.08544 0.91352 9.04223L0.913686 9.04211M0.917782 9.8059L0.913686 9.04211M0.913686 9.04211L2.8621 7.67906L2.86224 7.67896M0.913686 9.04211L2.86224 7.67896M2.86224 7.67896C2.96425 7.60685 3.09215 7.57705 3.21794 7.59642L3.21798 7.59642M2.86224 7.67896L3.21798 7.59642M3.21798 7.59642C3.32814 7.61327 3.42924 7.66622 3.50444 7.74626L3.50452 7.74635M3.21798 7.59642L3.50452 7.74635M3.50452 7.74635L3.87223 8.13506L3.89766 8.11101M3.50452 7.74635L3.89766 8.11101M3.89766 8.11101L3.87224 8.13507C4.14093 8.41902 4.51345 8.58881 4.90812 8.60747C5.30279 8.62613 5.68781 8.49214 5.97869 8.2345L5.97873 8.23447M3.89766 8.11101L5.97873 8.23447M5.97873 8.23447L8.55302 5.94715L8.55304 5.94713C8.84331 5.68881 9.01538 5.32813 9.03123 4.94413C9.04709 4.56014 8.90544 4.1846 8.63775 3.89974L8.63767 3.89966L8.27017 3.51104M5.97873 8.23447L8.27017 3.51104M8.27017 3.51104C8.18945 3.42519 8.14399 3.31401 8.14211 3.19879C8.14022 3.08358 8.18202 2.97202 8.25972 2.88534L8.25979 2.88526M8.27017 3.51104L8.25979 2.88526M8.25979 2.88526L9.82951 1.1232L8.25979 2.88526ZM8.28574 4.21544C8.28576 4.21547 8.28578 4.21549 8.2858 4.21551M8.28574 4.21544L8.2858 4.21551M8.2858 4.21551C8.4667 4.40885 8.56193 4.66286 8.55111 4.92203C8.54028 5.18118 8.42428 5.42487 8.22813 5.59986L8.2858 4.21551ZM10.0147 0.995489C9.94319 1.02317 9.87976 1.06696 9.82954 1.12316L10.0147 0.995489ZM10.0147 0.995489C10.0862 0.967796 10.1637 0.957023 10.2408 0.964118M10.0147 0.995489L10.2408 0.964118M10.2408 0.964118C10.3179 0.971214 10.3923 0.995966 10.4578 1.0363M10.2408 0.964118L10.4578 1.0363M10.4578 1.0363C10.5234 1.07662 10.5781 1.13133 10.6177 1.19585L10.4578 1.0363Z" fill="#333333" stroke="#333333" stroke-width="0.07"/>
</svg>