<svg xmlns="http://www.w3.org/2000/svg" width="19" height="18" viewBox="0 0 19 18" fill="none">
  <path d="M18.3496 3.52174H16.1974V2.93477C16.1974 2.71245 16.0718 2.50924 15.8729 2.40975L13.8069 1.37672C13.6311 0.589992 12.9277 0 12.0887 0H2.69739C1.72645 0 0.936523 0.789926 0.936523 1.76087V6.45652C0.936523 7.22173 1.42727 7.87412 2.11043 8.11642V13.4053C1.42727 13.6476 0.936523 14.3 0.936523 15.0652V16.2391C0.936523 17.2101 1.72645 18 2.69739 18H8.56694C9.53789 18 10.3278 17.2101 10.3278 16.2391V15.0652C10.3278 14.0943 9.53789 13.3044 8.56694 13.3044H6.80607V10.5652H8.56694C8.89108 10.5652 9.15391 10.3024 9.15391 9.97826V8.21739H12.0887C12.9277 8.21739 13.6311 7.62739 13.8069 6.84063L15.8729 5.8076C16.0718 5.70818 16.1974 5.50498 16.1974 5.28261V4.69564H18.3496C18.6737 4.69564 18.9365 4.43285 18.9365 4.10868C18.9365 3.7845 18.6737 3.52174 18.3496 3.52174ZM8.56694 14.4783C8.89059 14.4783 9.15391 14.7416 9.15391 15.0652V16.2391C9.15391 16.5628 8.89059 16.8261 8.56694 16.8261H2.69739C2.37375 16.8261 2.11043 16.5628 2.11043 16.2391V15.0652C2.11043 14.7416 2.37375 14.4783 2.69739 14.4783H8.56694ZM3.28436 13.3044V8.21739H5.6322V13.3044H3.28436ZM7.98001 9.39129H6.80611V8.21739H7.98001V9.39129ZM12.6757 6.45652C12.6757 6.78016 12.4123 7.04348 12.0887 7.04348H2.69739C2.37375 7.04348 2.11043 6.78016 2.11043 6.45652V1.76087C2.11043 1.43722 2.37375 1.1739 2.69739 1.1739H12.0887C12.4123 1.1739 12.6757 1.43722 12.6757 1.76087V6.45652ZM15.0235 4.91984L13.8496 5.5068V2.71062L15.0235 3.29759V4.91984Z" fill="#F2AE14"/>
</svg>