<svg xmlns="http://www.w3.org/2000/svg" width="19" height="14" viewBox="0 0 19 14" fill="none">
  <path d="M13.7037 10.7969H7.51139C7.33432 10.7969 7.1645 10.7251 7.0393 10.5975C6.91409 10.4698 6.84375 10.2966 6.84375 10.116V1.38399C6.84375 1.20341 6.91409 1.03023 7.0393 0.902544C7.1645 0.774858 7.33432 0.703125 7.51139 0.703125H17.3324C17.5094 0.703125 17.6792 0.774858 17.8045 0.902544C17.9297 1.03023 18 1.20341 18 1.38399V10.1092C18 10.2898 17.9297 10.463 17.8045 10.5906C17.6792 10.7183 17.5094 10.7901 17.3324 10.7901H16.4644" stroke="#F2AE14"/>
  <path d="M5.42895 10.7969H6.84375V3.625H3.49128C3.44192 3.625 3.39315 3.63583 3.34831 3.65677C3.30348 3.6777 3.26365 3.70823 3.23156 3.74626L1.0786 6.36209C1.02765 6.42443 0.999845 6.50288 1 6.58383V10.7969H2.46606" stroke="#F2AE14"/>
  <path d="M14.9453 12.6562C14.1385 12.6562 13.4844 12.0022 13.4844 11.1953C13.4844 10.3885 14.1385 9.73438 14.9453 9.73438C15.7522 9.73438 16.4062 10.3885 16.4062 11.1953C16.4062 12.0022 15.7522 12.6562 14.9453 12.6562Z" stroke="#F2AE14"/>
  <path d="M3.92187 12.6562C3.04167 12.6562 2.32812 12.0022 2.32812 11.1953C2.32812 10.3885 3.04167 9.73438 3.92187 9.73438C4.80208 9.73438 5.51562 10.3885 5.51562 11.1953C5.51562 12.0022 4.80208 12.6562 3.92187 12.6562Z" stroke="#F2AE14"/>
</svg>