<svg xmlns="http://www.w3.org/2000/svg" width="25" height="19" viewBox="0 0 25 19" fill="none">
  <path fill-rule="evenodd" clip-rule="evenodd" d="M9.71394 12.4893V5.17794C12.1365 6.39928 14.0127 7.57911 16.2317 8.85113C14.4015 9.93864 12.1365 11.1589 9.71394 12.4893ZM23.2147 1.54165C22.7968 0.951768 22.0846 0.492596 21.3263 0.340578C19.0976 -0.112881 5.19352 -0.114171 2.96601 0.340578C2.35796 0.462708 1.8165 0.757914 1.35138 1.21657C-0.608441 3.16551 0.00567407 13.6171 0.478067 15.3101C0.676713 16.0429 0.933511 16.5714 1.25692 16.9183C1.67359 17.3769 2.24409 17.6927 2.89938 17.8344C4.73444 18.241 14.1883 18.4684 21.2875 17.8954C21.9416 17.7733 22.5206 17.4473 22.9772 16.9692C24.7893 15.028 24.6658 3.98952 23.2147 1.54165Z" fill="#F2AE14"/>
</svg>